<svg height="1024" viewBox="0 0 1280 1024" width="1280" xmlns="http://www.w3.org/2000/svg"><path d="m0 0h1280v1024h-1280z" fill="none"/><path d="m0 0 33.224-33.224-9.804-9.803-33.224 33.223z" fill="#fd456b" transform="matrix(5.04245829 0 0 -5.04245829 499.935131 389.701092)"/><path d="m0 0 9.804-9.804-33.224-33.223-9.804 9.803z" fill="#f5cc00" transform="matrix(5.04245829 0 0 -5.04245829 780.064869 389.701092)"/><path d="m0 0 33.224-33.224-9.804-9.803-33.224 33.223z" fill="#06cbad" transform="matrix(5.04245829 0 0 -5.04245829 661.970999 227.665727)"/><path d="m0 0 9.804-9.804-33.224-33.223-9.804 9.803z" fill="#866bfa" transform="matrix(5.04245829 0 0 -5.04245829 618.029001 227.665727)"/><path d="m0 0-5.446-5.45-5.445 5.45 5.445 5.446z" fill="#f83700" transform="matrix(5.04245829 0 0 -5.04245829 667.459715 557.220128)"/><path d="m0 0-5.449-5.446-5.446 5.446 5.446 5.446z" fill="#06a300" transform="matrix(5.04245829 0 0 -5.04245829 807.534165 417.164839)"/><path d="m0 0-5.446-5.446-5.449 5.446 5.449 5.446z" fill="#881b6e" transform="matrix(5.04245829 0 0 -5.04245829 527.404427 417.164839)"/><path d="m0 0-5.446-5.446-5.445 5.446 5.445 5.45z" fill="#033846" transform="matrix(5.04245829 0 0 -5.04245829 667.459715 277.109553)"/><path d="m16.69.78c7.11 0 14-3.97 14-11.64 0-7.56-5.94-10.7-12.38-12.66-1.73-.56-3.02-1.06-3.86-1.46-1.18-.56-2.02-1.17-2.02-2.57 0-1.63 2.07-2.24 3.36-2.24 3.03 0 4.54 1.34 5.83 3.97l7.95-4.64c-2.75-5.66-7.51-8.57-13.78-8.57-6.83 0-12.65 4.42-12.65 11.48 0 7.22 5.15 10.08 11.36 11.93 1.96.56 3.36 1.06 4.32 1.45 1.28.51 2.57 1.18 2.57 2.75 0 2.07-2.8 3.08-4.48 3.08-3.64 0-6.16-1.4-7.56-4.88l-7.84 4.6c2.52 6.44 8.46 9.4 15.18 9.4zm42.89 0c10.98 0 19.72-8.9 19.72-19.76 0-11.04-8.8-19.72-19.72-19.72-10.97 0-19.76 8.85-19.76 19.72 0 10.8 8.84 19.76 19.76 19.76zm-10.47-19.76c0-5.72 4.82-10.42 10.47-10.42 5.77 0 10.36 4.7 10.36 10.42 0 5.71-4.59 10.41-10.36 10.41-5.71 0-10.47-4.76-10.47-10.41zm70.9-19.27-.06-.05-10.02 16.74-10.03-16.74h-9.35v38.3h9.35v-21.22l8.91 14.95h2.29l8.91-14.95v21.22h9.29v-38.3h-9.29zm33.32 29.46v-6.39h13.33v-8.79h-13.33v-5.49h14.67v-8.84h-24.02v38.3h24.3v-8.79zm41.21-3.53 6.89 12.32h10.64l-8.01-14.45c3.7-2.41 5.83-6.49 5.83-10.86 0-7.23-5.77-12.99-12.94-12.99h-16.24v38.3h9.35v-12.32zm-4.48-8.85v-8.29h6.89c2.35 0 4.15 1.8 4.15 4.15 0 2.24-1.91 4.14-4.15 4.14zm72.13-17.13h-16.35v38.3h16.35c10.92 0 19.66-8.06 19.66-18.98 0-10.87-8.74-19.32-19.66-19.32zm-7 29.51v-20.67h7c5.77 0 10.36 4.65 10.36 10.36 0 5.77-4.7 10.31-10.36 10.31zm38.59-29.51v38.3h9.35v-38.3zm60.42 20.72v-3.81h-21.17v8.85h9.86c-1.96 2.52-4.93 3.97-8.12 3.97-5.71 0-10.47-4.76-10.47-10.41 0-5.72 4.81-10.42 10.47-10.42 3.47 0 6.21 1.51 8.34 4.26l7.28-5.77c-3.81-4.93-9.35-7.79-15.62-7.79-10.98 0-19.77 8.85-19.77 19.72 0 10.92 8.96 19.76 19.77 19.76 10.19 0 19.43-7.95 19.43-18.36zm12.77-20.72v38.3h9.35v-38.3zm49.67 8.84v-8.84h-28.62v8.84h9.69v29.46h9.3v-29.46zm31.64 29.46h9.97l-14.06-38.3h-9.97l-14 38.3h9.97l2.47-6.66h13.16zm-12.43-15.51 3.41-9.24 3.31 9.24zm42 6.72v-29.51h-9.35v38.3h24.19v-8.79z" transform="matrix(1.92115385 0 0 1.92115385 166.439419 722.971228)"/><path d="m25.33 1.19c10.8 0 21.25-6.04 21.25-17.68 0-11.48-9.01-16.24-18.78-19.21-2.64-.85-4.59-1.62-5.87-2.21-1.78-.85-3.06-1.79-3.06-3.91 0-2.47 3.15-3.4 5.1-3.4 4.59 0 6.89 2.04 8.84 6.03l12.07-7.05c-4.16-8.59-11.39-13.01-20.91-13.01-10.37 0-19.21 6.72-19.21 17.43 0 10.96 7.82 15.3 17.26 18.1 2.97.85 5.1 1.62 6.54 2.21 1.96.77 3.91 1.79 3.91 4.17 0 3.14-4.25 4.67-6.8 4.67-5.52 0-9.35-2.12-11.47-7.39l-11.9 6.97c3.82 9.77 12.83 14.28 23.03 14.28z" transform="matrix(1.92115385 0 0 1.92115385 593.455245 475.947692)"/></svg>