<svg height="1024" viewBox="0 0 1280 1024" width="1280" xmlns="http://www.w3.org/2000/svg"><path d="m0 0h1280v1024h-1280z" fill="none"/><path d="m0 0 33.224-33.224-9.804-9.803-33.224 33.223z" fill="#fd456b" transform="matrix(4.42802014758 0 0 -4.42802014758 94.35209210646 488.4894205204)"/><path d="m0 0 9.804-9.804-33.224-33.223-9.804 9.803z" fill="#f5cc00" transform="matrix(4.42802014758 0 0 -4.42802014758 340.34720989354 488.4894205204)"/><path d="m0 0 33.224-33.224-9.804-9.803-33.224 33.223z" fill="#06cbad" transform="matrix(4.42802014758 0 0 -4.42802014758 236.64342004579 346.19853458965)"/><path d="m0 0 9.804-9.804-33.224-33.223-9.804 9.803z" fill="#866bfa" transform="matrix(4.42802014758 0 0 -4.42802014758 198.05588195421 346.19853458965)"/><path d="m0 0-5.446-5.45-5.445 5.45 5.445 5.446z" fill="#f83700" transform="matrix(4.42802014758 0 0 -4.42802014758 241.46332041789 635.59577714061)"/><path d="m0 0-5.449-5.446-5.446 5.446 5.446 5.446z" fill="#06a300" transform="matrix(4.42802014758 0 0 -4.42802014758 364.46929292626 512.60663100859)"/><path d="m0 0-5.446-5.446-5.449 5.446 5.449 5.446z" fill="#881b6e" transform="matrix(4.42802014758 0 0 -4.42802014758 118.47417428587 512.60663100859)"/><path d="m0 0-5.446-5.446-5.445 5.446 5.445 5.45z" fill="#033846" transform="matrix(4.42802014758 0 0 -4.42802014758 241.46332041789 389.61748656362)"/><path d="m13.71.64c5.84 0 11.5-3.26 11.5-9.56 0-6.21-4.88-8.79-10.17-10.4-1.42-.46-2.48-.87-3.17-1.2-.97-.46-1.66-.96-1.66-2.11 0-1.34 1.7-1.84 2.76-1.84 2.49 0 3.73 1.1 4.79 3.26l6.53-3.81c-2.26-4.65-6.17-7.04-11.32-7.04-5.61 0-10.39 3.63-10.39 9.43 0 5.93 4.23 8.28 9.33 9.8 1.61.46 2.76.87 3.55 1.19 1.05.42 2.11.97 2.11 2.26 0 1.7-2.3 2.53-3.68 2.53-2.99 0-5.06-1.15-6.21-4.01l-6.44 3.78c2.07 5.29 6.95 7.72 12.47 7.72zm35.64 0c9.02 0 16.19-7.31 16.19-16.23 0-9.07-7.22-16.2-16.19-16.2-9.02 0-16.24 7.27-16.24 16.2 0 8.87 7.27 16.23 16.24 16.23zm-8.6-16.23c0-4.7 3.95-8.56 8.6-8.56 4.74 0 8.51 3.86 8.51 8.56 0 4.69-3.77 8.55-8.51 8.55-4.69 0-8.6-3.91-8.6-8.55zm58.64-15.83-.04-.04-8.24 13.75-8.23-13.75h-7.68v31.46h7.68v-17.43l7.31 12.28h1.89l7.31-12.28v17.43h7.64v-31.46h-7.64zm27.78 24.2v-5.25h10.95v-7.22h-10.95v-4.51h12.05v-7.26h-19.73v31.46h19.96v-7.22zm34.26-2.9 5.66 10.12h8.74l-6.58-11.87c3.04-1.98 4.78-5.33 4.78-8.92 0-5.94-4.73-10.67-10.62-10.67h-13.34v31.46h7.68v-10.12zm-3.68-7.27v-6.81h5.66c1.93 0 3.4 1.48 3.4 3.41 0 1.84-1.56 3.4-3.4 3.4zm60.06-14.07h-13.43v31.46h13.43c8.97 0 16.15-6.62 16.15-15.59 0-8.93-7.18-15.87-16.15-15.87zm-5.75 24.24v-16.98h5.75c4.74 0 8.51 3.82 8.51 8.51 0 4.74-3.86 8.47-8.51 8.47zm32.1-24.24v31.46h7.69v-31.46zm50.04 17.02v-3.13h-17.38v7.27h8.09c-1.61 2.07-4.05 3.26-6.67 3.26-4.69 0-8.6-3.91-8.6-8.55 0-4.7 3.96-8.56 8.6-8.56 2.85 0 5.11 1.24 6.86 3.5l5.98-4.74c-3.13-4.05-7.69-6.4-12.84-6.4-9.01 0-16.24 7.27-16.24 16.2 0 8.97 7.36 16.23 16.24 16.23 8.37 0 15.96-6.53 15.96-15.08zm10.9-17.02v31.46h7.68v-31.46zm41.21 7.26v-7.26h-23.51v7.26h7.96v24.2h7.64v-24.2zm26.39 24.2h8.19l-11.54-31.46h-8.19l-11.5 31.46h8.19l2.02-5.47h10.81zm-10.21-12.74 2.81-7.59 2.71 7.59zm34.91 5.52v-24.24h-7.68v31.46h19.87v-7.22z" transform="matrix(1.92115385 0 0 1.92115385 444.45315990225 540.3696289835)"/><path d="m22.35 1.05c9.53 0 18.75-5.32 18.75-15.6 0-10.13-7.95-14.33-16.58-16.95-2.32-.75-4.05-1.42-5.17-1.95-1.58-.75-2.7-1.57-2.7-3.45 0-2.17 2.78-3 4.5-3 4.05 0 6.07 1.8 7.8 5.33l10.65-6.23c-3.68-7.58-10.05-11.47-18.45-11.47-9.15 0-16.95 5.92-16.95 15.37 0 9.68 6.9 13.5 15.23 15.97 2.62.75 4.5 1.43 5.77 1.96 1.73.67 3.45 1.57 3.45 3.67 0 2.77-3.75 4.13-6 4.13-4.88 0-8.25-1.88-10.12-6.53l-10.51 6.15c3.38 8.63 11.33 12.6 20.33 12.6z" transform="matrix(1.92115385 0 0 1.92115385 176.289789994 564.4333560985)"/></svg>